<svg xmlns="http://www.w3.org/2000/svg" width="800" height="420" viewBox="0 0 800 420" role="img" aria-label="API Controller Lifecycle">
  <defs>
    <linearGradient id="g" x1="0" x2="1" y1="0" y2="1">
      <stop offset="0" stop-color="#eefbf3"/>
      <stop offset="1" stop-color="#dff7ea"/>
    </linearGradient>
    <style>
      .title{font: 700 34px Inter, Arial, sans-serif; fill:#0b3d2e;}
      .small{font: 700 20px Inter, Arial, sans-serif; fill:#116149;}
    </style>
  </defs>
  <rect width="800" height="420" rx="32" fill="url(#g)"/>
  <circle cx="80" cy="80" r="80" fill="#178f63" opacity="0.12"/>
  <circle cx="725" cy="355" r="110" fill="#0b3d2e" opacity="0.10"/>
  <text x="400" y="78" text-anchor="middle" class="title">API Controller Lifecycle</text>
  <rect x="55" y="145" width="145" height="90" rx="20" fill="#ffffff" stroke="#b7dcc6" stroke-width="3"/>
<text x="127.5" y="195" text-anchor="middle" class="small">Register Schema</text>
<path d="M205 190 L230 190" stroke="#178f63" stroke-width="4" stroke-linecap="round"/>
<path d="M224 182 L234 190 L224 198" fill="none" stroke="#178f63" stroke-width="4" stroke-linecap="round" stroke-linejoin="round"/>
<rect x="235" y="145" width="145" height="90" rx="20" fill="#ffffff" stroke="#b7dcc6" stroke-width="3"/>
<text x="307.5" y="195" text-anchor="middle" class="small">Create Controller</text>
<path d="M385 190 L410 190" stroke="#178f63" stroke-width="4" stroke-linecap="round"/>
<path d="M404 182 L414 190 L404 198" fill="none" stroke="#178f63" stroke-width="4" stroke-linecap="round" stroke-linejoin="round"/>
<rect x="415" y="145" width="145" height="90" rx="20" fill="#ffffff" stroke="#b7dcc6" stroke-width="3"/>
<text x="487.5" y="195" text-anchor="middle" class="small">Suggest Controls</text>
<path d="M565 190 L590 190" stroke="#178f63" stroke-width="4" stroke-linecap="round"/>
<path d="M584 182 L594 190 L584 198" fill="none" stroke="#178f63" stroke-width="4" stroke-linecap="round" stroke-linejoin="round"/>
<rect x="595" y="145" width="145" height="90" rx="20" fill="#ffffff" stroke="#b7dcc6" stroke-width="3"/>
<text x="667.5" y="195" text-anchor="middle" class="small">Save / Load</text>
</svg>